<svg width="64" height="64" viewBox="0 0 64 64" fill="none" xmlns="http://www.w3.org/2000/svg">
  <path d="M32 4C28.58 4 25.85 5.74 24.46 8.24C23.94 7.47 23.07 7 22 7C20.35 7 19 8.35 19 10C19 10.35 19.06 10.68 19.17 11C17.28 11.55 16 13.38 16 15.5C16 18.54 18.46 21 21.5 21H42.5C45.54 21 48 18.54 48 15.5C48 13.38 46.72 11.55 44.83 11C44.94 10.68 45 10.35 45 10C45 8.35 43.65 7 42 7C40.93 7 40.06 7.47 39.54 8.24C38.15 5.74 35.42 4 32 4Z" fill="#E0F7FA"/>
  <path d="M20 25L12 59H52L44 25H20Z" fill="#4DD0E1"/>
  <path d="M26 31L20 59H44L38 31H26Z" fill="#B2EBF2"/>
  <path fill-rule="evenodd" clip-rule="evenodd" d="M32 4C28.58 4 25.85 5.74 24.46 8.24C23.94 7.47 23.07 7 22 7C20.35 7 19 8.35 19 10C19 10.35 19.06 10.68 19.17 11C17.28 11.55 16 13.38 16 15.5C16 18.54 18.46 21 21.5 21H42.5C45.54 21 48 18.54 48 15.5C48 13.38 46.72 11.55 44.83 11C44.94 10.68 45 10.35 45 10C45 8.35 43.65 7 42 7C40.93 7 40.06 7.47 39.54 8.24C38.15 5.74 35.42 4 32 4ZM20 25L12 59H52L44 25H20ZM26 31L20 59H44L38 31H26Z" stroke="#006064" stroke-width="2" stroke-linecap="round" stroke-linejoin="round"/>
  <circle cx="48" cy="16" r="8" fill="#FF5252" fill-opacity="0.7"/>
</svg>